<svg id="Layer_1" data-name="Layer 1" xmlns="http://www.w3.org/2000/svg" viewBox="-1 -1 302 63">
  <defs>
    <style>
      .cls-1 {
        fill: #3963af;
      }

      .cls-2 {
        fill: #00aee6;
      }

      .cls-3 {
        stroke: #00aee6;
        fill: none;
        stroke-miterlimit: 5;
        stroke-width: 4px;
        stroke-dasharray: 500;
        stroke-dashoffset: 500;
        animation: dash 5s linear forwards;
      }
      .cls-4 {
        stroke: #3963af;
        stroke-width: 4px;
        fill: none;
        stroke-miterlimit: 5;
        stroke-width: 4px;
        stroke-dasharray: 500;
        stroke-dashoffset: 500;
        animation: dash 5s linear forwards;
      }
            @keyframes dash {
  to {
    stroke-dashoffset: 0;
  }
  }
    </style>
  </defs>
  <polygon class="cls-1" points="58.6 45.8 58.6 13.5 66.9 13.5 66.9 38.6 76.4 38.6 76.4 45.8 58.6 45.8"/>
  <path class="cls-1" d="M104.5,48.8V46.2h-.1c-1,2.1-3.9,3.4-7.1,3.4-7.2,0-12.1-5.6-12.1-12.9s5.2-13,12.1-13a8.2,8.2,0,0,1,7.1,3.4h.1V24.6h7.3V48.8Zm0-12.1a6.1,6.1,0,0,0-6.1-6.2,6.1,6.1,0,0,0-6,6.2,6.1,6.1,0,0,0,6,6.2,6,6,0,0,0,6.1-6.2" transform="translate(-4.9 -3)"/>
  <path class="cls-1" d="M119,48.8V24.6h6.9v2.5h0c1.3-2.5,3.3-3.4,6.1-3.4V31c-4.3.1-5.7,1.7-5.7,4.4V48.8Z" transform="translate(-4.9 -3)"/>
  <path class="cls-1" d="M142.8,38.9a5.5,5.5,0,0,0,5.7,4.6,5.3,5.3,0,0,0,4.4-2.3h7.4c-2.3,5.3-6.7,8.4-11.8,8.4a13,13,0,0,1-.2-25.9c7.3,0,12.8,5.7,12.8,13.3a6.2,6.2,0,0,1-.2,1.9ZM153.9,34a5.5,5.5,0,0,0-5.6-4.2,5.3,5.3,0,0,0-5.4,4.2Z" transform="translate(-4.9 -3)"/>
  <path class="cls-1" d="M210.5,48.8V46.2h-.1c-1,2.3-2.9,3.4-6.2,3.4-5.1,0-9.4-3.1-9.4-10v-15h7.3V38.1c0,3.2,1.1,4.7,3.9,4.7s4.1-1.8,4.1-4.8V24.6h7.3V48.8Z" transform="translate(-4.9 -3)"/>
  <polygon class="cls-2" points="220.5 45.8 220.5 13.5 223.8 13.5 223.8 42.9 237.1 42.9 237.1 45.8 220.5 45.8"/>
  <path class="cls-2" d="M267,48.8V44.6h-.1a10.9,10.9,0,0,1-9.3,4.8,12.6,12.6,0,1,1,0-25.1,10.7,10.7,0,0,1,9.3,4.8h.1V24.9h3.1V48.8Zm.2-11.9a9.7,9.7,0,1,0-19.4,0,9.7,9.7,0,1,0,19.4,0" transform="translate(-4.9 -3)"/>
  <path class="cls-2" d="M278,48.8V16.5h3V29.1h.1a11.5,11.5,0,0,1,9.3-4.8,12.6,12.6,0,1,1,0,25.1,11.3,11.3,0,0,1-9.3-4.8H281v4.2ZM290.4,27a9.8,9.8,0,0,0-9.5,9.9,9.6,9.6,0,0,0,9.5,9.7,9.5,9.5,0,0,0,9.8-9.7,9.6,9.6,0,0,0-9.8-9.9" transform="translate(-4.9 -3)"/>
  <path class="cls-3" d="M38.5,45.2a4.8,4.8,0,0,1-4.8-4.7V9.7a4.8,4.8,0,1,0-9.5,0V31.9A4.7,4.7,0,0,0,29,36.7H48.4a4.3,4.3,0,1,1,0,8.5Z" transform="translate(-4.9 -3)"/>
  <path class="cls-4" d="M21.1,61.2a4.7,4.7,0,0,1-4.7-4.8V25.7a4.8,4.8,0,1,0-9.6,0V47.9a4.8,4.8,0,0,0,4.8,4.8H31.1a4.3,4.3,0,0,1,0,8.5Z" transform="translate(-4.9 -3)"/>
  <path class="cls-1" d="M183.4,49V46.4h-.1c-1.1,2.1-4,3.4-7.2,3.4-7.1,0-12.1-5.6-12.1-13s5.2-12.9,12.1-12.9c3,0,5.8,1.2,7.2,3.4h.1V24.7h7.2V49Zm0-12.2a6.1,6.1,0,0,0-6.2-6.1,6.2,6.2,0,0,0,.1,12.3,6.1,6.1,0,0,0,6.1-6.2" transform="translate(-4.9 -3)"/>
</svg>
