<?xml version="1.0" encoding="utf-8"?>
<!-- Generator: Adobe Illustrator 24.2.1, SVG Export Plug-In . SVG Version: 6.00 Build 0)  -->
<svg version="1.1" id="Layer_1" xmlns="http://www.w3.org/2000/svg" xmlns:xlink="http://www.w3.org/1999/xlink" x="0px" y="0px"
	 viewBox="0 0 302 63" style="enable-background:new 0 0 302 63;" xml:space="preserve">
<style type="text/css">
	.st0{fill:#FFFFFF;stroke:#FFFFFF;stroke-width:0.5;stroke-miterlimit:5;}
</style>
<polygon class="st0" points="59.6,46.8 59.6,14.5 67.9,14.5 67.9,39.6 77.4,39.6 77.4,46.8 "/>
<path class="st0" d="M100.6,46.8v-2.6h-0.1c-1,2.1-3.9,3.4-7.1,3.4c-7.2,0-12.1-5.6-12.1-12.9s5.2-13,12.1-13
	c2.8-0.2,5.5,1.1,7.1,3.4h0.1v-2.5h7.3v24.2H100.6z M100.6,34.7c0.1-3.4-2.6-6.1-6-6.2c0,0-0.1,0-0.1,0c-3.4,0.1-6.1,2.8-6,6.2
	c0,0,0,0,0,0c-0.1,3.4,2.6,6.1,6,6.2c0,0,0,0,0,0c3.3,0.1,6-2.6,6.1-5.9C100.6,34.9,100.6,34.8,100.6,34.7"/>
<path class="st0" d="M115.1,46.8V22.6h6.9v2.5l0,0c1.3-2.5,3.3-3.4,6.1-3.4V29c-4.3,0.1-5.7,1.7-5.7,4.4v13.4H115.1z"/>
<path class="st0" d="M138.9,36.9c0.5,2.8,2.9,4.7,5.7,4.6c1.8,0,3.4-0.9,4.4-2.3h7.4c-2.3,5.3-6.7,8.4-11.8,8.4
	c-7.2-0.6-12.5-6.8-11.9-14c0.5-6.3,5.4-11.3,11.7-11.9c7.3,0,12.8,5.7,12.8,13.3c0,0.6,0,1.3-0.2,1.9H138.9z M150,32
	c-0.6-2.6-3-4.3-5.6-4.2c-2.6-0.1-4.9,1.7-5.4,4.2H150z"/>
<path class="st0" d="M206.6,46.8v-2.6h-0.1c-1,2.3-2.9,3.4-6.2,3.4c-5.1,0-9.4-3.1-9.4-10v-15h7.3v13.5c0,3.2,1.1,4.7,3.9,4.7
	s4.1-1.8,4.1-4.8V22.6h7.3v24.2H206.6z"/>
<polygon class="st0" points="221.5,46.8 221.5,14.5 224.8,14.5 224.8,43.9 238.1,43.9 238.1,46.8 "/>
<path class="st0" d="M263.1,46.8v-4.2H263c-2.1,3.1-5.6,4.9-9.3,4.8C246.8,48,240.6,42.9,240,36s4.5-13.1,11.4-13.7
	c0.7-0.1,1.5-0.1,2.2,0c3.7-0.1,7.2,1.7,9.3,4.8h0.1v-4.2h3.1v23.9H263.1z M263.3,34.9c0-5.4-4.3-9.7-9.7-9.7
	c-5.4,0-9.7,4.3-9.7,9.7c0,0,0,0,0,0c0,5.4,4.3,9.7,9.7,9.7C258.9,44.6,263.3,40.3,263.3,34.9C263.3,34.9,263.3,34.9,263.3,34.9"/>
<path class="st0" d="M274.1,46.8V14.5h3v12.6h0.1c2.2-3,5.6-4.8,9.3-4.8c6.9-0.6,13.1,4.5,13.7,11.4c0.6,6.9-4.5,13.1-11.4,13.7
	c-0.7,0.1-1.5,0.1-2.2,0c-3.7,0-7.2-1.8-9.3-4.8h-0.1v4.2L274.1,46.8z M286.5,25c-5.3,0.2-9.6,4.6-9.5,9.9c-0.1,5.3,4.2,9.6,9.5,9.7
	c0,0,0,0,0,0c5.2,0.2,9.6-3.9,9.8-9.2c0-0.2,0-0.3,0-0.5c0.2-5.3-4-9.7-9.3-9.9C286.8,25,286.7,25,286.5,25"/>
<path class="st0" d="M45.2,45.2c-0.3,0-0.5,0-0.8,0h-9.8c-3.7,0-6.7-3-6.8-6.7v-1.8h-2.9c-3.7-0.1-6.6-3.1-6.6-6.8l0-22
	c-0.1-0.6-0.1-1.2,0-1.8c0.5-3.7,4-6.3,7.7-5.8c3.7,0.5,6.2,3.9,5.8,7.6v24.9h12.6c1.6-0.2,3.2,0.2,4.5,1.2c1.4,1,2.2,2.5,2.5,4.1
	c0.5,3.4-1.8,6.7-5.3,7.2C45.8,45.2,45.5,45.2,45.2,45.2z M31.8,36.7v1.8c0,1.5,1.3,2.7,2.8,2.7l10.2,0c0.2,0,0.5,0,0.7,0
	c1.3-0.2,2.1-1.4,1.9-2.6c-0.1-0.6-0.4-1.1-0.9-1.5c-0.5-0.4-1.1-0.5-1.7-0.4l-0.3,0H31.8z M25,4.2c-1.4,0-2.6,1-2.8,2.4
	c0,0.3,0,0.5,0,0.8l0,0.3v22.2c0,1.5,1.2,2.8,2.6,2.8h2.9l0-25.1l0-0.1c0.2-1.5-0.8-3-2.4-3.2C25.3,4.2,25.2,4.2,25,4.2z"/>
<path class="st0" d="M27.4,61.2H17.2c-3.7,0-6.7-3-6.7-6.7l0-1.8H7.7c-3.7,0-6.8-3.1-6.8-6.8V23.7c0-3.7,3.1-6.8,6.8-6.8
	s6.8,3.1,6.8,6.8v25l13,0c3.4,0.5,5.8,3.8,5.3,7.2c-0.4,2.7-2.5,4.8-5.3,5.3L27.4,61.2z M14.5,54.5c0,1.5,1.2,2.7,2.7,2.7H27
	c0.9-0.2,1.6-0.9,1.8-1.9c0.2-1.2-0.6-2.3-1.8-2.6H14.5v1.7 M7.7,20.9c-1.5,0-2.8,1.3-2.8,2.8v22.2c0,1.5,1.3,2.8,2.8,2.8h2.8v-25
	C10.5,22.2,9.2,20.9,7.7,20.9z"/>
<path class="st0" d="M179.5,47v-2.6h-0.1c-1.1,2.1-4,3.4-7.2,3.4c-7.1,0-12.1-5.6-12.1-13s5.2-12.9,12.1-12.9c3,0,5.8,1.2,7.2,3.4
	h0.1v-2.6h7.2V47H179.5z M179.5,34.8c0-3.4-2.7-6.1-6.1-6.1c0,0-0.1,0-0.1,0c-3.4,0.5-5.8,3.6-5.3,7c0.4,2.8,2.6,5,5.4,5.3
	c3.4,0,6.1-2.7,6.1-6.1C179.5,34.9,179.5,34.8,179.5,34.8"/>
</svg>
