<svg id="Layer_1" data-name="Layer 1" xmlns="http://www.w3.org/2000/svg" viewBox="0 0 212.5 97.7">
  <defs>
    <style>
      .cls-1, .cls-2 {
        fill: none;
        stroke-width: 5px;
      }

      .cls-1 {
        stroke: #9bbfc9;
      }
      .cls-3 {
        fill: #20788a;
      }

      .cls-4 {
        fill: #9bbfc9;
      }
      .cls-2 {
        stroke: #20788a;
        fill: none;
        stroke-miterlimit: 10;
        stroke-width: 5px;
        stroke-dasharray: 500;
  		stroke-dashoffset: 500;
  		animation: dash 7s linear forwards;
      }
      @keyframes dash {
  to {
    stroke-dashoffset: 0;
  }


    </style>
  </defs>
  <path class="cls-1" d="M42.5,105.2H65a9.7,9.7,0,0,0,0-19.4H31.6V24.3A10.9,10.9,0,0,0,20.8,13.4h0A10.9,10.9,0,0,0,9.9,24.3V94.5a10.7,10.7,0,0,0,10.7,10.7H42.5Z" transform="translate(-7.4 -10.9)"/>
  <path class="cls-2" d="M42.5,105.2A10.9,10.9,0,0,1,31.6,94.3v-70A10.9,10.9,0,0,0,20.7,13.4h0A10.9,10.9,0,0,0,9.9,24.3V74.9A10.9,10.9,0,0,0,20.7,85.8H65a9.7,9.7,0,0,1,0,19.4Z" transform="translate(-7.4 -10.9)"/>
  <path class="cls-3" d="M41.7,56.7,58.8,19.5h2.5L78.2,56.7H70.4l-2.8-6H52.4l-2.8,6ZM54.9,44.9H65L60,33Z" transform="translate(-7.4 -10.9)"/>
  <path class="cls-3" d="M103.7,42l9.5,14.7h-8.6L96.8,44a26.4,26.4,0,0,1-4.9.1V56.7H84.8V20.2c17.4-3,25.5,2.4,25.5,11.4A11.7,11.7,0,0,1,103.7,42M91.9,37.9c7.7.8,11.1-2.1,11.1-6.4s-3.6-6.6-11.1-5.4Z" transform="translate(-7.4 -10.9)"/>
  <polygon class="cls-3" points="136.2 39.9 136.2 45.8 112.7 45.8 112.7 9 135.7 9 135.7 15 119.8 15 119.8 24.2 132.9 24.2 132.9 30.1 119.8 30.1 119.8 39.9 136.2 39.9"/>
  <path class="cls-3" d="M149.5,56.7l17-37.2H169l17,37.2h-7.9l-2.7-6H160.1l-2.7,6Zm13.2-11.8h10.1l-5-11.9Z" transform="translate(-7.4 -10.9)"/>
  <path class="cls-3" d="M190.2,19.9h7.1V42.7c0,4.8,3.4,8.5,7.7,8.5s7.8-3.7,7.8-8.5V19.9h7.1V42.8c0,7.6-5,14.7-14.9,14.7s-14.8-7.1-14.8-14.7Z" transform="translate(-7.4 -10.9)"/>
  <path class="cls-4" d="M80.7,108.2l17-37.3h2.5l17,37.3h-7.9l-2.7-6H91.3l-2.8,6ZM93.8,96.3H104L98.9,84.4Z" transform="translate(-7.4 -10.9)"/>
  <path class="cls-4" d="M123.7,71.6c10.4-1.7,24.8-1.7,24.8,9.4a8.5,8.5,0,0,1-4,7.6,9,9,0,0,1,6.5,9c0,7.4-5.6,12.8-27.3,10.5Zm7.2,14.9h7.6a4.7,4.7,0,0,0,2.9-4.4c0-5.2-5.7-5.5-10.5-4.9Zm0,15.5c7.2.7,12.8-.1,12.8-5.1,0-3.2-2.6-4.6-4.5-5h-8.3Z" transform="translate(-7.4 -10.9)"/>
</svg>
