<svg id="Layer_1" data-name="Layer 1" xmlns="http://www.w3.org/2000/svg" viewBox="0 0 212.7 97.7">
  <defs>
    <style>
      .cls-1, .cls-2 {
        fill: none;
        stroke-width: 5px;
      }

      .cls-1 {
        stroke: #629ed5;
      }


      .cls-2 {
        fill: none;
        stroke: #144984;
        stroke-miterlimit: 10;
        stroke-width: 5px;
        stroke-dasharray: 1000;
  		stroke-dashoffset: 1000;
  		animation: dash 10s linear forwards;
      }
      @keyframes dash {
  to {
    stroke-dashoffset: 0;
  }
      .cls-2 {
        stroke: ;
      }

      .cls-3 {
        fill: #144984;
      }

      .cls-4 {
        fill: #629ed5;
      }
    </style>
  </defs>
  <path class="cls-1" d="M39.2,97H61.8a9.7,9.7,0,0,0,0-19.3H28.3V16.2A10.8,10.8,0,0,0,17.5,5.3h0A10.9,10.9,0,0,0,6.6,16.2V86.3A10.6,10.6,0,0,0,17.3,97H39.2Z" transform="translate(-4 -2.8)"/>
  <path class="cls-2" d="M39.3,97.3a10.9,10.9,0,0,1-11-10.8V16.8A10.8,10.8,0,0,0,17.4,6h0A10.8,10.8,0,0,0,6.5,16.8V67.2A10.8,10.8,0,0,0,17.4,78H62a9.7,9.7,0,1,1,0,19.3Z" transform="translate(-4 -2.8)"/>
  <path class="cls-3" d="M38.4,48.6,55.5,11.4H58L74.9,48.6H67.1l-2.8-6H49.1l-2.8,6ZM51.6,36.7H61.7l-5-11.8Z" transform="translate(-4 -2.8)"/>
  <path class="cls-3" d="M100.5,33.9l9.4,14.7h-8.6L93.5,35.9a26.2,26.2,0,0,1-4.9.1V48.6H81.5V12.1c17.4-3,25.5,2.3,25.5,11.4a11.9,11.9,0,0,1-6.5,10.4M88.6,29.8c7.7.8,11.1-2.1,11.1-6.4S96.1,16.8,88.6,18Z" transform="translate(-4 -2.8)"/>
  <polygon class="cls-3" points="136.3 39.8 136.3 45.8 112.8 45.8 112.8 8.9 135.8 8.9 135.8 14.9 119.9 14.9 119.9 24.1 133 24.1 133 30.1 119.9 30.1 119.9 39.8 136.3 39.8"/>
  <path class="cls-3" d="M146.2,48.6l17.1-37.2h2.4l17,37.2h-7.8l-2.8-6H156.8l-2.7,6Zm13.2-11.9h10.1l-5-11.8Z" transform="translate(-4 -2.8)"/>
  <path class="cls-3" d="M186.9,11.8H194V34.5c0,4.9,3.4,8.6,7.7,8.6s7.8-3.7,7.8-8.6V11.8h7.2V34.6c0,7.7-5.1,14.7-15,14.7s-14.8-7-14.8-14.7Z" transform="translate(-4 -2.8)"/>
  <path class="cls-4" d="M77.4,100l17-37.2h2.5l17,37.2H106l-2.7-5.9H88L85.3,100ZM90.6,88.2h10.1l-5-11.9Z" transform="translate(-4 -2.8)"/>
  <path class="cls-4" d="M120.4,63.5c10.4-1.7,24.8-1.7,24.8,9.4a8.5,8.5,0,0,1-4,7.6c2.9.6,6.5,3.6,6.5,9,0,7.4-5.6,12.8-27.3,10.5Zm7.2,14.9h7.6a4.7,4.7,0,0,0,2.9-4.4c0-5.2-5.7-5.6-10.5-4.9Zm0,15.5c7.2.7,12.9-.2,12.9-5.1,0-3.2-2.7-4.6-4.6-5h-8.3Z" transform="translate(-4 -2.8)"/>
</svg>
