<svg id="Layer_1" data-name="Layer 1" xmlns="http://www.w3.org/2000/svg" viewBox="0 0 443.1 106">
  <defs>
    <style>
      .cls-1 {
        fill: none;
        stroke: #231f20;
        stroke-miterlimit: 10;
        stroke-width: 2px;
          stroke-dasharray: 2500;
  		stroke-dashoffset: 2500;
  		animation: dash 5s linear forwards;
      }
      @keyframes dash {
  to {
    stroke-dashoffset: 0;
  }
    </style>
  </defs>
  <path class="cls-1" d="M9.3,109.1s-.1-27.8.1-27.6h5.1v3.7h1.9L17,66.9h1.4v-.4l.3-.3v-.9h.5v-1l.4-.4h2.6v.6h.7v.3h.8v.6h.9v1H26l-.3,20.2h2.6v.8h1.3L30,71h.2v-.4h.5v-.5h.8V68.9h.7v-.7L33,68v-.4h2.3v.5h1.3v.7h.5V67.2h.5V64.3H37V57.7l2.7-.4h.4v-.4h.7v.5h.6v-.5h1.2v.5h3v1.9H45v4.5h.5v3.4h-.7V75h.3v6.7h-.6v9.8h.4v.9h1.2v-.5h.5v-3H50v-1h2.5l.3-11.6h.3V71.4l3.5-.5,11.4.3v9.2h.8v.8h1.4V79.6h.4V79H71v.6h.9V77.9l.3-.3h4v.8H77v2.9h1.5v1h1.2v1h.6l.2-14.6h.4v-2h.5V64.6H83V62.8h.6v.3h.3v-.4h.2V63h.2v-.3h.4V63h.2v-.4h2.5V63h.4v-.4h.4V63h.6v-.4h.3V63H90v-.4h.1v.5h.8v-.4h.3v.4h1.6v-.4h.4v.4h.7v-.3h.3v.4h2.5v.7H98l.3-14-.8-.5.8-.2V47.3h-.2V43.9h1.2v-.5h1.6V40.8h-.2v-.6h.2s-.1-14-.2-14.1h-.3v-.2h.6v.2h-.1l.4.4V39.7h.1l1.1-2.1h.1l-.7,2.3h6.5v.3h1.2v.6h-.3v8.2h1l-.3.6h-.4l-.2.4V60.9h.2v3.5h2.6l3,.3v1.4h.9l-.2,7.3h.5V68.9l3.3-1.9.6,4.1h2.4v.5l-2.1.7.2,2.5h1l.7,6,.3-2.9,2.4,1.1V76.9h.8V75.6h1.3v-.4h1.1V74.1h3.9v1.4h1.5V77H135V89.6h4.3V82.8h1.5v-.3h.7V84h2v1h.7V74.2h3.6v-9h.5V56.4h.4l.3-5.7h.2V50h.2l.7-7,3.6-.5,10.4.4.8,7.5h.4v5.7h.4l-.2,9h.4v15l1.1.4v1.2l.8-.7V74.7h2.4V86h.7V81.5h.8v.6h1.4l.2-6.2.2,6.2h1.1v.4h.3v-.9h.6v5.2h1.1V85.4l.8,1.5h.3V89h.3v.2h.3v-.6s.3.1.3,0v-.7h.7V84l1,.5V79.3h1.3l.2.9h.7v3.9h.4V82.3h3v-.2h.5v-.2h.5v.4h.9V82h.9v.3h2.5v-3s-.5-.9,0-1.3h1.2l.2-3.5v3.4a1.4,1.4,0,0,1,0,1.4v5.5h.6V83.4h4.3V81.8h.3v-.7h.2v.6l.4-7.1v7.1h.7v1.7h1.7v2.3h1v1.9h.8v-.7h.8l.3-8.6h1.8l-.2,6.7h.2V81.7l2.3-2.1h.4V80h.4l.4-6.9.2,6.4h.2v-.6h.4l.6-.7v.7l.2,6.3h.5V82.8h.7v-.6h.5V82h.3v-.5h.4v.4h1.3v-.3h.6v.3h2v2h.5v1H219v1h5.5v.9h2.1v.7h.3V85.9h.2v-.4h.5v-1h.3v-.4h.8v.7h.8v2.5h.8V85.6h1.6v1.3h.4v1.2h.3V86h.2v-.7h.2v-1h.5v-.6h.3v.4h.5V71.2h2.6V87.3h.1v1.9h1.9v1.2h.3V89l2-.3h.8V78.8h.2V75.7h.1V74.4h.4v-.8h.5v-.4h.1V73h.2v-.3h.2l.2-.2V72h.1v-.6h.2v-.7h.1V69h0v-.3h.2v-.9h-.1v-1h.1l.2-3.5v4.3h.1v.8h.1V69h.2v1.7h.2v1.6l.2.3h.4v.3h.4v.4h.3v.9h.3v1.5h.3v2.9h.2v5.1h1.3v1.1h.2v.4h.5V85h.8v-.3h.7V82.6h.2v2h4.2V82.4h3.2v-.7h3.5l.2.7h1.1V87h.2v.5h2v1h.8v-5h1.8v2.3l.3-.3.4.3v.9h.3V86h1.2v-.4h.5V86h1.8v1h.3v-.8h.7v-.6h.3v1.1h.4v.8h.4v-.6h1.1l.2-.2v-.9h.1V83.7h.1l.7-3.3a26.4,26.4,0,0,0,.2-2.8l.3,2.8.9,3.3v2.1h.3v5h.2v-1h.2V88.4h.8V87.3h1.4V85.6h3.6v-.8h.4v.8h.3v-.8h.2V82.9h.2V82h.3v.9h.2v.6h1.3v5.7h.3V87.4h4v2.2h1v-.4h1.2v-.6h.4v.8h.2l-.2-9.9.3.3V80h.2v-.2h.6v-.4h1.1V80h.4v.7h.3v8.6h.7v2.5h3.1l1-1.9h.5l1.1,2.3V89.4h.5v-1h1.2V82.7h2.7v7.6h.7v-.8h.8V82.8h1.6v-.5h2.7v.5h-.4V84h.5v4.6h-.4v4.9h1.2l-.2-14.1h.6v-.9h.4V77.3h.4V77h.2v-.3h-.2v-.2l.9-.7H324l1.4.7v.7h.4v1.4h1.4v3.1h.6V89h.3v1.3h1.1V89.1h.6v-.2h.3v-.2h-.2v-.2h.2v-.2h-.3v-.2h.3v-.2h-.3v-.2h.3v-.2h-.3v-.2h.3V87h-.3v-.2h.3v-.2h-.3v-.2h.3v-.3h-.3v-.2h1.6V84.8h3.1v1.1h2.9v2.7h.9v1.6h1v3.3h.7V91.7h-.3V88.2h.4V87.1h.5v1.1h.5v-.2h.3v-.2h-.3v-.3h.3v-.2h0v-.3h-.3v-.2h.3v-.2h-.3v-.2h.3v-.4h-.3v-.2h2.4V85h.7v-.2h-.7V83.4h4.4v-.2h.2v-.3h.3v-.2h.6v.5h.4v-.4h1.3v.3h2.2V88h.4V85.3h.3v-.2h.3v-.2h.5v.2h.4v-.2h.2V83.4h4.2v-.2h.2v.2h.3v.6h1.8v-.2h.2V84h1.1v1.2H365v-.8h1.2V80h.5V78.2h.4V77h.8V76h.6v-.9h.4l-.2-12.6a85.6,85.6,0,0,1,12.8-.7v-.5h3l.5,1V84.2h.5l-.3-15.5h.7V66.3h.3V65.2h.8v-1l5.1-3.3,5.4,3v1h.9v1.5h.5v1.8h.8v.6h1.7v-1h.2V67h-.3V65.6h.8v-.8h.3V64h.6v-.4h1.9v.5h1v.5h1.3V65h-.4a7.1,7.1,0,0,1,3.7,2.8v.8h1.2l.6-42.5h1.4v-.3h-.2l.5-.2v-.2h-.4v-.4h.5v-.3H414l.2-.2h1.2l1.4-5,.2-.8h.3v-2h-.4v-.2h.4v-2h-.4v-.5h.2v.2h.1V12h-.2v-.3l.2-.2V9.7h-.2V9.5h.3V3.2l.2,2.2V8.2h-.1V9.5h.3v2.1h.2v.2h-.2v1.9h.3v.4h-.3v2h.4v.3h-.4v1.9h.5l1.9,5.5h1.4v-.4h.4v.9h-.4v.3h.5V25h-.5v.3h.4v.4h-.2v.2l1.5.6,2.5,36.4h.7v-.7H431l.7,21.9h.5l-.2-5.6h.6v-.3h1.3v.2h.2V76.2h.5V73.8h.8v-3h.9V69.6l2.1-1.8h6.3l2.1,1.6v1.2h1v3H449v.5h1.4v35" transform="translate(-8.3 -3.1)"/>
</svg>
