<svg id="Layer_1" data-name="Layer 1" xmlns="http://www.w3.org/2000/svg" viewBox="0 0 587.2 195.6">
  <defs>
    <style>
      .cls-1 {
        fill: none;
        stroke: #010101;
        stroke-miterlimit: 10;
        stroke-width: 2px;
        stroke-dasharray: 10000;
  		stroke-dashoffset: 10000;
  		animation: dash 10s linear forwards;
      }
      @keyframes dash {
  to {
    stroke-dashoffset: 0;
  }
    </style>
  </defs>
  <path class="cls-1" d="M9.6,212.7V200H35.4v-8.2h2.9l.9-6v-4.4h4.1v-6.5h9.5v-24H69.6v26.3h2.3v9.4h8.2v-3.2h11v-2h1.8v-8l1.7-33.5,1.5-1.3h9.1l1.3,1.3,1.4,33.5,1,8v17.8h6.2V135.3h3.7l.9-8.1v-6.5l3.1,1.8,1.4-3.9v4.7l1.6.9v3h3.1v8.1l1.6,13.5h11.1V109.6l4.6,1.9v-6.9h5.3v9.1l1.5.6v34.5l1.7,22h2.6V200h4.3l1.1-44.3V141.9h2.1v-3.5h1.7l1.2-4.1V119.5h2.2l1.2-19.8v19.8h2.2l1.2,14.8v4.1h1.8v3.5h2.1v13.8h3.3V127.5h2.2V99.7h6.8V84.6l3.4-6.8h6V72.5h3.2V69.8h2l1.2,2.7.7,5.3,2.9,6.8V99.7h6.3v33.8h3.4V122.6h3.5v-2.5h1.8V107.5h6.3V85.1h3.5v22.4h5.9v12.6h2.1v2.5h3.3v54.6h4.3V160.5h4V102.3h2.3l1.4-2.6.3-3.6,3.7-4.8,1-11.9.5,11.9,3.6,4.8,1.4,3.6v2.6H271v58.2h3v16.7h2.7v-15h3.5l2,2.9H293V135.5h2.4V117.7h11.4v20.9l1.2,26.5v4.7h1.9V145.5h5.7v-7.1H324V77.1h3.2V64.6h5l1.1-3.1,1.1-6.3.9-4.4a4.1,4.1,0,0,1,3.6-4.1l1.2-25.4V46.7a5.4,5.4,0,0,1,4.1,4.1l.8,4.4.7,6.3.7,3.1v3.8h4.9V60.8h2.4v14l1.2,2.3v61.3H363v31.4h3.2l1.2,2.4v-7.6h2.5v-3.5h-2.5v-5.6h2.5V97.9l1.5-16.6,2.9-2.8,1.3-7.3c-.1-1.7-.1-2.7-.1-2.8a3.2,3.2,0,0,1,2.3-3.1V41.5l1.7,23.8c1.4.4,2.4,1.6,2.3,3.8l1.3,2.1,1.2,7.3v2.8L386,97.9h2.3v57.6h2.5v5.6h-2.5v3.5h3.9l1.5,7.6v15.2h2.9v28.4h2.7l1.4-28.4v-2h4V172.2h4.9l1.1-16.3,1.1-2.7v-7.5h2.6v7.5H422l1.5,2.7,1.5,16.3v15.2h8.3V172.2h2.6V169h2.8v-3.9h2v-7.9H443l1.1,7.9,1.4,7.1,1.5,15.2v28.4h2.6V178.6h2.2v-8.1h5.5V118.2h3.3V83.8H466v34.4h2.2V111h2.1v-6.3H473V98.6h4.5l.6,6.1,1.4,6.3v7.2h1.8v52.3l2.6,8.1V200l.4-8.2h2.9v-6l.9-4.4h4.1v-6.5h9.5v-24h16.8v26.3h2.3v9.4H529v-3.2h11v-2h1.8v-8l1.6-33.5,1.6-1.3h9.1v1.3l1.3,33.5,1.4,8,1,17.8H564V135.3h3.7v-8.1l.9-6.5,3,1.8v-3.9l1.5,4.7,1.6.9v3h3v8.1l1.7,13.5h15.4v60" transform="translate(-8.6 -21.2)"/>
</svg>
